<svg width="21" height="22" viewBox="0 0 21 22" fill="none" xmlns="http://www.w3.org/2000/svg">
<path d="M13.9285 1.99986C13.9282 1.78817 13.8681 1.58086 13.7553 1.40176C13.6425 1.22265 13.4814 1.07902 13.2905 0.987369C13.0997 0.895718 12.8869 0.859766 12.6766 0.883646C12.4662 0.907526 12.2669 0.990268 12.1015 1.12236L6.78472 5.37486H1.55347C1.2551 5.37486 0.96895 5.49339 0.757972 5.70437C0.546993 5.91535 0.428467 6.2015 0.428467 6.49986V15.4999C0.428467 15.7982 0.546993 16.0844 0.757972 16.2954C0.96895 16.5063 1.2551 16.6249 1.55347 16.6249H6.78472L12.1015 20.8774C12.2669 21.0095 12.4662 21.0922 12.6766 21.1161C12.8869 21.14 13.0997 21.104 13.2905 21.0124C13.4814 20.9207 13.6425 20.7771 13.7553 20.598C13.8681 20.4189 13.9282 20.2116 13.9285 19.9999V1.99986ZM7.88047 7.37736L11.6785 4.33986V17.6599L7.88047 14.6224C7.68133 14.4626 7.43377 14.3753 7.17847 14.3749H2.67847V7.62486H7.17847C7.43377 7.62441 7.68133 7.53713 7.88047 7.37736ZM20.7347 10.9999C20.7365 12.3298 20.4754 13.6469 19.9664 14.8755C19.4575 16.1042 18.7108 17.2202 17.7692 18.1594L16.1785 16.5686C16.9108 15.8381 17.4916 14.9701 17.8873 14.0144C18.2831 13.0587 18.4861 12.0343 18.4847 10.9999C18.486 9.96549 18.283 8.94106 17.8872 7.9854C17.4914 7.02974 16.9107 6.16169 16.1785 5.43111L17.7692 3.84036C18.7108 4.77953 19.4575 5.89551 19.9664 7.12418C20.4754 8.35284 20.7365 9.66997 20.7347 10.9999Z" fill="white" fill-opacity="0.6"/>
</svg>
