<svg width="30" height="22" viewBox="0 0 30 22" fill="none" xmlns="http://www.w3.org/2000/svg">
<path d="M12.8633 0.987722C13.0539 1.07954 13.2147 1.22325 13.3273 1.40234C13.44 1.58143 13.4998 1.78866 13.5 2.00022V20.0002C13.4997 20.2119 13.4397 20.4192 13.3268 20.5983C13.214 20.7774 13.0529 20.9211 12.8621 21.0127C12.6712 21.1044 12.4584 21.1403 12.2481 21.1164C12.0378 21.0926 11.8384 21.0098 11.673 20.8777L6.35625 16.6252H1.125C0.826631 16.6252 0.540483 16.5067 0.329505 16.2957C0.118526 16.0847 0 15.7986 0 15.5002V6.50022C0 6.20185 0.118526 5.91571 0.329505 5.70473C0.540483 5.49375 0.826631 5.37522 1.125 5.37522H6.35625L11.673 1.12272C11.8385 0.990395 12.0381 0.907517 12.2487 0.883633C12.4592 0.859749 12.6723 0.89583 12.8633 0.987722ZM11.25 4.34022L7.452 7.37772C7.25286 7.53749 7.00531 7.62477 6.75 7.62522H2.25V14.3752H6.75C7.00531 14.3757 7.25286 14.463 7.452 14.6227L11.25 17.6602V4.34022ZM28.9215 5.70372C29.0263 5.80823 29.1094 5.93237 29.1661 6.06905C29.2228 6.20572 29.252 6.35225 29.252 6.50022C29.252 6.6482 29.2228 6.79472 29.1661 6.9314C29.1094 7.06808 29.0263 7.19222 28.9215 7.29672L25.2157 11.0002L28.9215 14.7037C29.1327 14.915 29.2514 15.2015 29.2514 15.5002C29.2514 15.799 29.1327 16.0855 28.9215 16.2967C28.7103 16.508 28.4237 16.6266 28.125 16.6266C27.8263 16.6266 27.5397 16.508 27.3285 16.2967L23.625 12.591L19.9215 16.2967C19.7103 16.508 19.4237 16.6266 19.125 16.6266C18.8263 16.6266 18.5397 16.508 18.3285 16.2967C18.1173 16.0855 17.9986 15.799 17.9986 15.5002C17.9986 15.2015 18.1173 14.915 18.3285 14.7037L22.0343 11.0002L18.3285 7.29672C18.2239 7.19213 18.1409 7.06795 18.0843 6.93129C18.0277 6.79462 17.9986 6.64815 17.9986 6.50022C17.9986 6.3523 18.0277 6.20582 18.0843 6.06916C18.1409 5.9325 18.2239 5.80832 18.3285 5.70372C18.5397 5.49248 18.8263 5.3738 19.125 5.3738C19.2729 5.3738 19.4194 5.40294 19.5561 5.45955C19.6927 5.51615 19.8169 5.59912 19.9215 5.70372L23.625 9.40947L27.3285 5.70372C27.433 5.59896 27.5571 5.51583 27.6938 5.45912C27.8305 5.4024 27.977 5.37321 28.125 5.37321C28.273 5.37321 28.4195 5.4024 28.5562 5.45912C28.6929 5.51583 28.817 5.59896 28.9215 5.70372Z" fill="white" fill-opacity="0.6"/>
</svg>
